<?xml version="1.0" encoding="UTF-8" standalone="no"?>
<!DOCTYPE svg PUBLIC "-//W3C//DTD SVG 1.1//EN" "http://www.w3.org/Graphics/SVG/1.1/DTD/svg11.dtd">
<svg width="100%" height="100%" viewBox="0 0 50 50" version="1.1" xmlns="http://www.w3.org/2000/svg" xmlns:xlink="http://www.w3.org/1999/xlink" xml:space="preserve" xmlns:serif="http://www.serif.com/" style="fill-rule:evenodd;clip-rule:evenodd;stroke-linejoin:round;stroke-miterlimit:2;">
    <g transform="matrix(0.0976566,0,0,0.0976566,3.12493,-0.000158135)">
        <path d="M32,464C32,490.332 53.668,512 80,512L368,512C394.332,512 416,490.332 416,464L416,128L32,128L32,464ZM304,208C304,199.223 311.223,192 320,192C328.777,192 336,199.223 336,208L336,432C336,440.777 328.777,448 320,448C311.223,448 304,440.777 304,432L304,208ZM208,208C208,199.223 215.223,192 224,192C232.777,192 240,199.223 240,208L240,432C240,440.777 232.777,448 224,448C215.223,448 208,440.777 208,432L208,208ZM112,208C112,199.223 119.223,192 128,192C136.777,192 144,199.223 144,208L144,432C144,440.777 136.777,448 128,448C119.223,448 112,440.777 112,432L112,208ZM432,32L312,32L302.6,13.3C298.545,5.158 290.196,-0.007 281.1,0L166.8,0C157.722,-0.035 149.388,5.145 145.4,13.3L136,32L16,32C7.223,32 -0,39.223 0,48L0,80C0,88.777 7.223,96 16,96L432,96C440.777,96 448,88.777 448,80L448,48C448,39.223 440.777,32 432,32Z" style="fill:rgb(175,49,49);fill-rule:nonzero;"/>
    </g>
</svg>
